<svg xmlns="http://www.w3.org/2000/svg" width="706" height="403" fill="none" viewBox="0 0 706 403"><path fill="#000" d="M504.752 304.944q-1.944-1.89-4.59-3.024-2.592-1.134-5.076-1.134-2.052 0-3.834.81a9 9 0 0 0-3.024 2.16q-1.242 1.35-1.998 3.24-.702 1.836-.702 4.05t.702 4.104a10.6 10.6 0 0 0 2.052 3.294 9.5 9.5 0 0 0 3.078 2.214q1.782.756 3.834.756 1.89 0 4.374-.972a19.3 19.3 0 0 0 4.644-2.538l6.372 7.884q-2.052 1.458-4.806 2.592a31 31 0 0 1-5.724 1.728q-2.97.648-5.67.648-4.374 0-8.1-1.458-3.672-1.512-6.48-4.158-2.754-2.646-4.266-6.264t-1.512-7.83 1.566-7.776a18.5 18.5 0 0 1 4.428-6.21q2.862-2.7 6.696-4.158t8.424-1.458q2.916 0 5.832.702a25.7 25.7 0 0 1 5.508 1.998q2.646 1.296 4.644 3.132zm-3.834 5.454h9.666v15.39h-9.666zm33.439-18.252q7.668 0 11.826 3.51t4.158 9.882q0 6.804-4.158 10.584-4.158 3.726-11.826 3.726h-6.426V330h-11.232v-37.854zm0 19.008q2.538 0 3.888-1.35 1.404-1.35 1.404-3.942 0-2.43-1.404-3.726-1.35-1.35-3.888-1.35h-6.426v10.368zm-2.484 4.59h10.908L551.637 330h-12.744zm42.963-24.3q4.482 0 8.208 1.458 3.78 1.458 6.534 4.104a18.2 18.2 0 0 1 4.32 6.21q1.566 3.564 1.566 7.776t-1.566 7.884a18.1 18.1 0 0 1-4.32 6.264q-2.754 2.646-6.534 4.158-3.726 1.458-8.208 1.458t-8.262-1.458q-3.726-1.512-6.534-4.158-2.754-2.646-4.32-6.264-1.512-3.618-1.512-7.884t1.512-7.83q1.566-3.564 4.32-6.156 2.808-2.646 6.534-4.104 3.78-1.458 8.262-1.458m.162 9.342q-1.89 0-3.618.756a9.1 9.1 0 0 0-2.97 2.16q-1.242 1.404-1.998 3.294-.702 1.836-.702 4.05t.756 4.104 1.998 3.294a9.9 9.9 0 0 0 2.97 2.214 8.6 8.6 0 0 0 3.564.756 8.1 8.1 0 0 0 3.456-.756 9.4 9.4 0 0 0 2.862-2.214q1.242-1.404 1.944-3.294t.702-4.104-.702-4.05q-.702-1.89-1.944-3.294a8.7 8.7 0 0 0-2.862-2.16 8.1 8.1 0 0 0-3.456-.756m35.842 13.554q0 3.24 1.89 5.184 1.89 1.89 4.536 1.89 2.7 0 4.428-1.89 1.728-1.944 1.728-5.184v-22.194h11.232v22.194q0 4.968-2.16 8.694-2.106 3.672-6.048 5.724-3.888 1.998-9.18 1.998-5.346 0-9.342-1.998-3.942-2.052-6.156-5.724-2.16-3.726-2.16-8.694v-22.194h11.232zm47.311-22.194q7.344 0 11.34 3.51 4.05 3.51 4.05 9.882 0 6.804-4.05 10.584-3.996 3.726-11.34 3.726h-10.854l4.914-4.914V330h-11.232v-37.854zm-.54 19.008q2.538 0 3.888-1.35 1.404-1.35 1.404-3.942 0-2.43-1.404-3.726-1.35-1.35-3.888-1.35h-10.314l4.914-4.86v20.142l-4.914-4.914zM476.186 336.146h11.232v28.458h15.876V374h-27.108zm31.548 0h11.232v28.458h15.876V374h-27.108zm58.926 13.77q-1.782-2.376-4.212-3.726-2.43-1.404-4.806-1.404-1.89 0-3.564.756a9.1 9.1 0 0 0-2.862 2.106q-1.242 1.35-1.944 3.186-.648 1.836-.648 3.996t.648 4.05q.702 1.836 1.944 3.186a9.1 9.1 0 0 0 2.862 2.106 8.6 8.6 0 0 0 3.564.756q2.214 0 4.644-1.188a15.5 15.5 0 0 0 4.374-3.24l6.48 6.912a23.5 23.5 0 0 1-4.698 3.888 23.7 23.7 0 0 1-5.562 2.592q-2.916.864-5.778.864-4.374 0-7.992-1.458-3.618-1.512-6.318-4.158t-4.212-6.264q-1.458-3.672-1.458-7.938 0-4.212 1.512-7.722a18.6 18.6 0 0 1 4.266-6.21 20.3 20.3 0 0 1 6.48-4.104q3.726-1.458 8.1-1.458 2.916 0 5.778.864a22.5 22.5 0 0 1 5.4 2.322q2.592 1.512 4.482 3.564zM112.24 198.88q16.32 0 25.2 7.8 9 7.8 9 21.96 0 15.12-9 23.52-8.88 8.28-25.2 8.28H88.12l10.92-10.92V283H74.08v-84.12zm-1.2 42.24q5.64 0 8.64-3 3.12-3 3.12-8.76 0-5.4-3.12-8.28-3-3-8.64-3H88.12l10.92-10.8v44.76l-10.92-10.92zm43.754-42.24h24.96v63.24h35.28V283h-60.24zm95.664 0h25.68l34.68 84.12h-26.64l-21.6-59.16-22.32 59.16h-25.68zm-12.96 52.44h48.6v18.24h-48.6zm62.52-52.44h73.92v19.92h-24.48V283h-25.08v-64.2h-24.36zm80.512 0h24.96V283h-24.96zm37.941 0h21.24l42.36 55.68-6.6 2.28v-57.96h22.8V283h-21.24l-42.24-55.44 6.6-2.28V283h-22.92zm116.424 49.32q0 7.2 4.2 11.52 4.2 4.2 10.08 4.2 6 0 9.84-4.2 3.84-4.32 3.84-11.52v-49.32h24.96v49.32q0 11.04-4.8 19.32-4.68 8.16-13.44 12.72-8.64 4.44-20.4 4.44-11.88 0-20.76-4.44-8.76-4.56-13.68-12.72-4.8-8.28-4.8-19.32v-49.32h24.96zm64.574-49.32h26.76l22.56 46.68 22.44-46.68h26.76V283h-21.96v-49.92l-19.2 41.64h-16.2l-19.2-41.64V283h-21.96zM74.08 288.88h65.28v19.2H99.04v16.8h37.44v19.2H99.04V373H74.08zm71.297 0h24.96V373h-24.96zm36.141 0h21.24l42.36 55.68-6.6 2.28v-57.96h22.8V373h-21.24l-42.24-55.44 6.6-2.28V373h-22.92zm90.984 0h24.96V373h-24.96zM369.123 316q-4.32-2.52-9.48-4.68t-10.08-3.48q-4.8-1.32-8.4-1.32-3.12 0-5.04 1.2t-1.92 3.72q0 2.76 2.28 4.56 2.4 1.68 6.36 2.88a468 468 0 0 0 8.64 2.52q4.68 1.2 9.36 3.12 4.68 1.8 8.519 4.68 3.961 2.76 6.361 7.32 2.4 4.44 2.4 11.04 0 9.12-4.8 15.12-4.68 5.88-12.6 8.88-7.8 2.88-17.28 2.88-7.2 0-14.52-1.68a76 76 0 0 1-14.04-4.68q-6.6-3-11.88-7.32l9.36-18.96q4.32 3.72 9.96 6.72 5.76 2.88 11.4 4.68 5.76 1.68 9.96 1.68 4.08 0 6.36-1.44 2.28-1.56 2.28-4.56 0-2.76-2.4-4.44-2.4-1.8-6.36-3-3.84-1.2-8.64-2.4-4.68-1.2-9.36-2.88-4.56-1.8-8.52-4.56t-6.36-7.08q-2.28-4.32-2.28-10.8 0-8.16 4.32-14.16 4.32-6.12 12.12-9.36t18.36-3.24q9.6 0 18.959 2.76 9.361 2.64 16.201 7.08zm15.152-27.12h24.96v33.6h29.88v-33.6h24.96V373h-24.96v-31.32h-29.88V373h-24.96z"/><path fill="#000" d="M114.667 74.4c-40 40.8-82.134 83.6-93.6 95.067C9.467 181.067 0 190.8 0 191.333s6.667.667 14.667.4l14.666-.4v95.6c0 75.734.4 95.734 1.734 95.734.8-.134 8.533-1.734 16.933-3.734l15.333-3.733.267-100.533c.133-55.334.4-101.334.4-102C64 171.2 78.533 156 144.533 88.8 168 64.933 187.6 45.333 188.133 45.333c.8 0 40.4 39.6 60.534 60.534 1.466 1.6 5.066 4.8 7.866 7.066 2.934 2.4 4.8 4.4 4.267 4.4s3.733 4.667 9.467 10.4c5.733 5.734 21.866 22.134 35.733 36.4L331.333 190l22 .8c12.134.4 22.267.533 22.534.4.266-.267-11.334-12.267-25.734-26.8L324 138l.133-37.333V63.333l-3.733-.4c-2-.266-11.067-.133-20 .4l-16.4.934v15.066c0 8.4-.533 15.467-1.2 16-.667.4-2.533-.933-4.133-2.933C272.533 84.533 189.6 0 188.133 0c-.4 0-33.466 33.467-73.466 74.4"/><path fill="#000" d="M137.067 105.6c-64.8 66.533-69.2 71.067-68.134 72.133.4.534 2.8.934 5.067.934 3.6 0 5.867-1.6 14.133-10.4 5.334-5.6 30-30.8 54.8-56C174.4 80.267 188.4 66.8 189.6 67.6c.933.533 11.067 10.667 22.4 22.4s35.467 36.533 53.733 54.933c32.134 32.667 33.334 33.734 38.4 33.734 2.8 0 5.2-.534 5.2-1.334 0-.666-22-23.6-48.933-50.933s-53.867-54.667-59.733-60.667c-5.867-6.133-11.334-11.066-12.134-11.066-.933 0-24 22.933-51.466 50.933"/><path fill="#000" d="M152.533 136.267c-1.6 3.6-.933 7.733 1.067 7.733.8 0 4.933-1.867 9.333-4.267 8.934-4.8 8.4-6.4-2.4-6.4-5.733 0-6.933.4-8 2.934M194.667 140.667c0 4 .266 7.333.666 7.333s5.867-2.8 12.267-6.267c10.4-5.6 11.333-6.4 8.4-7.2-1.867-.533-7.333-.933-12.267-1.066l-9.066-.134zM169.2 144.533c-14 7.734-20.667 13.734-18.267 16.134.934.933 11.467-4.267 24.934-12.267 7.733-4.667 12.266-10 9.6-11.6-.534-.4-7.867 3.067-16.267 7.733M221.867 139.867c-2.267 1.2-9.2 5.066-15.6 8.666l-11.6 6.667v5.867c0 5.866 0 5.866 3.066 4 1.6-1.067 9.334-5.734 17.334-10.4 13.733-8 14.266-8.534 14.266-12.8 0-5.067-1.2-5.334-7.466-2"/></svg>